<?xml version="1.0" encoding="utf-8"?>
<!-- Generator: Adobe Illustrator 21.1.0, SVG Export Plug-In . SVG Version: 6.00 Build 0)  -->
<svg version="1.1" id="Layer_1" xmlns="http://www.w3.org/2000/svg" xmlns:xlink="http://www.w3.org/1999/xlink" x="0px" y="0px"
	 viewBox="0 0 898 898" style="enable-background:new 0 0 898 898;" xml:space="preserve">
<g>
	<path d="M449,195.3c-31.8,0-57.7,25.9-57.7,57.7s25.9,57.7,57.7,57.7c31.8,0,57.7-25.9,57.7-57.7S480.8,195.3,449,195.3z
		 M449,290.7c-20.8,0-37.7-16.9-37.7-37.7s16.9-37.7,37.7-37.7s37.7,16.9,37.7,37.7S469.8,290.7,449,290.7z"/>
	<path d="M862.8,274.2c-22.6-53.5-55-101.5-96.2-142.7c-41.2-41.2-89.3-73.6-142.7-96.2C568.4,11.8,509.6-0.1,449-0.1
		S329.6,11.8,274.2,35.2c-53.5,22.6-101.5,55-142.7,96.2c-41.2,41.2-73.6,89.3-96.2,142.7C11.8,329.6-0.1,388.4-0.1,449
		s11.9,119.4,35.3,174.8c22.6,53.5,55,101.5,96.2,142.7c41.2,41.2,89.3,73.6,142.7,96.2c55.4,23.4,114.2,35.3,174.8,35.3
		s119.4-11.9,174.8-35.3c53.5-22.6,101.5-55,142.7-96.2s73.6-89.3,96.2-142.7c23.4-55.4,35.3-114.2,35.3-174.8
		S886.2,329.6,862.8,274.2z M297.9,848.6L379.5,373H518l81.6,475.7c-48,18.1-98.6,27.3-150.6,27.3
		C396.8,876.1,346.1,866.8,297.9,848.6z M751,751c-38.4,38.4-82.9,68.6-132.4,90.1l-83.8-488H362.7L279,840.9
		c-49.3-21.4-93.7-51.6-132-89.9c-37.4-37.4-67.2-80.7-88.5-128.8c42.4,44.8,92.5,82.4,147.3,110.3c21.5,11,43.8,20.5,66.6,28.4
		l3.4-19.9c-20.7-7.4-41-16.2-60.9-26.3c-68.3-34.8-129.1-85.3-176-146.2C27.6,529.9,21.9,489.9,21.9,449c0-39.8,5.4-78.7,16-116.3
		c16.7,86.6,60.6,166,126.3,227c38,35.3,81.6,62.9,128.6,81.8l3.8-22.2c-42.9-17.9-82.7-43.3-117.5-75.7
		C106.6,476,62.1,385,53.8,286.9c0.6-1.4,1.1-2.7,1.7-4.1C77,231.9,107.8,186.2,147,147c12.1-12.1,24.9-23.4,38.2-33.9
		c-6.6,12.4-12.4,25.3-17.2,38.6c-11.7,32.4-17.7,66.5-17.7,101.3c0,116.1,66.6,216.9,163.5,266.3l3.9-22.8
		C231.2,449.7,172.3,358.1,172.3,253c0-32.2,5.5-63.7,16.4-93.8c10.3-28.4,25.1-54.9,44.1-78.6c16-9.4,32.7-17.8,50-25.1
		C335.4,33.2,391.3,21.9,449,21.9c57.7,0,113.6,11.3,166.2,33.6c17.3,7.3,33.9,15.7,50,25.1c19,23.7,33.8,50.2,44.1,78.6
		c10.9,30,16.4,61.6,16.4,93.8c0,105.3-59.1,197-145.9,243.7l3.9,22.8c97.2-49.3,164-150.3,164-266.5c0-34.7-5.9-68.8-17.7-101.3
		c-4.8-13.3-10.6-26.2-17.2-38.6c13.3,10.5,26,21.8,38.2,33.9c39.2,39.2,70,84.9,91.5,135.8c0.6,1.4,1.1,2.7,1.7,4.1
		c-8.3,98.1-52.8,189.2-125.4,256.7c-34.9,32.5-74.9,58-117.9,75.9l3.8,22.2c47.2-18.9,90.9-46.6,129.1-82
		c65.7-61,109.6-140.4,126.3-227c10.6,37.6,16,76.6,16,116.3c0,40.9-5.7,80.9-16.9,119.5c-47,60.9-107.7,111.4-176,146.2
		c-20,10.2-40.5,19-61.4,26.5l3.4,19.9c22.9-8,45.4-17.5,67-28.6C746.9,704.6,797,667,839.5,622.2C818.1,670.2,788.4,713.6,751,751z
		"/>
	<path d="M449,75.3c-98,0-177.7,79.7-177.7,177.7c0,55.1,25.2,104.4,64.7,137l4-23.2c-30-28.7-48.7-69.1-48.7-113.8
		c0-86.9,70.7-157.7,157.7-157.7S606.7,166.1,606.7,253c0,44.9-18.9,85.5-49.1,114.2l4,23.1c39.7-32.6,65.1-82.1,65.1-137.4
		C626.7,155,547,75.3,449,75.3z"/>
</g>
</svg>
